<svg width="92" height="91" viewBox="0 0 92 91" fill="none" xmlns="http://www.w3.org/2000/svg">
<path d="M90.6377 9.00246C91.2216 9.58823 91.5495 10.3816 91.5495 11.2087C91.5495 12.0358 91.2216 12.8292 90.6377 13.415L84.1189 19.94L71.6189 7.43996L78.1377 0.914958C78.7237 0.329111 79.5184 0 80.3471 0C81.1757 0 81.9704 0.329111 82.5564 0.914958L90.6377 8.99621V9.00246ZM79.7002 24.3525L67.2002 11.8525L24.6189 54.44C24.2749 54.7839 24.016 55.2033 23.8627 55.665L18.8314 70.7525C18.7402 71.0275 18.7272 71.3225 18.794 71.6045C18.8608 71.8865 19.0047 72.1444 19.2096 72.3493C19.4145 72.5542 19.6724 72.6981 19.9544 72.7649C20.2364 72.8317 20.5314 72.8187 20.8064 72.7275L35.8939 67.6962C36.355 67.5447 36.7744 67.2879 37.1189 66.9462L79.7002 24.3587V24.3525Z" fill="black"/>
<path fill-rule="evenodd" clip-rule="evenodd" d="M0 81.2524C0 83.7388 0.987721 86.1234 2.74587 87.8816C4.50403 89.6397 6.8886 90.6274 9.375 90.6274H78.125C80.6114 90.6274 82.996 89.6397 84.7541 87.8816C86.5123 86.1234 87.5 83.7388 87.5 81.2524V43.7524C87.5 42.9236 87.1708 42.1288 86.5847 41.5427C85.9987 40.9567 85.2038 40.6274 84.375 40.6274C83.5462 40.6274 82.7513 40.9567 82.1653 41.5427C81.5792 42.1288 81.25 42.9236 81.25 43.7524V81.2524C81.25 82.0812 80.9208 82.8761 80.3347 83.4622C79.7487 84.0482 78.9538 84.3774 78.125 84.3774H9.375C8.5462 84.3774 7.75134 84.0482 7.16529 83.4622C6.57924 82.8761 6.25 82.0812 6.25 81.2524V12.5024C6.25 11.6736 6.57924 10.8788 7.16529 10.2927C7.75134 9.70668 8.5462 9.37744 9.375 9.37744H50C50.8288 9.37744 51.6237 9.0482 52.2097 8.46215C52.7958 7.8761 53.125 7.08124 53.125 6.25244C53.125 5.42364 52.7958 4.62878 52.2097 4.04273C51.6237 3.45668 50.8288 3.12744 50 3.12744H9.375C6.8886 3.12744 4.50403 4.11516 2.74587 5.87332C0.987721 7.63147 0 10.016 0 12.5024V81.2524Z" fill="black"/>
</svg>
