<svg width="277" height="70" viewBox="0 0 277 70" fill="none" xmlns="http://www.w3.org/2000/svg">
<path d="M45.3555 0.634766C46 1.32227 46.7627 1.66602 47.6436 1.66602C54.6904 1.83789 59.9541 1.92383 63.4346 1.92383L65.207 1.66602C67.0762 2.00977 69.708 2.26758 73.1025 2.43945C75.208 2.26758 76.3145 2.18164 76.4219 2.18164C79.8164 2.35352 83.3828 2.60059 87.1211 2.92285C87.7871 2.75098 88.3779 2.66504 88.8936 2.66504C90.4189 2.87988 91.1816 3.1377 91.1816 3.43848C91.1816 3.61035 90.7627 4.20117 89.9248 5.21094V6.5H90.4082V6.75781L90.1826 7.27344C91.5361 7.27344 92.2129 7.52051 92.2129 8.01465C92.041 8.01465 91.9551 8.10059 91.9551 8.27246C85.0801 8.61621 76.3359 8.87402 65.7227 9.0459V8.78809L65.207 9.0459H57.5693V9.30371C59.5674 9.47559 61.0176 9.56152 61.9199 9.56152C62.2637 9.60449 62.4355 9.76562 62.4355 10.0449L61.9199 10.3027C61.4688 10.3027 59.1699 10.2168 55.0234 10.0449L53.7666 10.3027C53.1006 10.1309 52.4238 10.0449 51.7363 10.0449H49.4482C48.3096 10.0449 46.6123 12 44.3564 15.9102C42.874 18.1875 41.6816 20.5615 40.7793 23.0322C41.4668 23.1826 41.8105 23.3545 41.8105 23.5479L42.3262 23.29C42.4766 23.29 42.5518 23.376 42.5518 23.5479L43.0674 23.29H44.8721C45.0225 23.29 45.0977 23.376 45.0977 23.5479L45.6133 23.29H46.1289C46.5156 23.29 46.8594 23.376 47.1602 23.5479C47.4395 23.376 47.7725 23.29 48.1592 23.29C48.4814 23.29 48.9971 23.7197 49.7061 24.5791C51.79 24.4072 52.8857 24.3213 52.9932 24.3213C53.3369 24.4932 53.5947 24.5791 53.7666 24.5791V24.8369C52.1982 24.8369 51.0059 24.9229 50.1895 25.0947C49.8672 24.9229 49.6201 24.8369 49.4482 24.8369V25.3203H50.7051L52.4775 25.0947C52.4775 25.3525 53.251 25.6855 54.7979 26.0938L55.2812 25.8359H56.0547V26.3516H54.0244C53.208 26.3516 52.3594 26.4375 51.4785 26.6094L49.9316 26.3516C48.9004 26.3516 46.9561 26.6094 44.0986 27.125C44.1416 27.4688 44.3135 27.6406 44.6143 27.6406C45.1299 27.6406 46.7412 27.7158 49.4482 27.8662L50.4473 27.6406C50.7051 27.791 51.2207 27.8662 51.9941 27.8662C51.9941 28.21 51.8223 28.3818 51.4785 28.3818H47.9014C47.665 28.3818 47.418 28.6396 47.1602 29.1553C47.332 29.1553 47.418 29.2412 47.418 29.4131L46.9023 29.6709C46.9023 29.1553 46.7305 28.8975 46.3867 28.8975H45.0977V29.4131H45.8711V29.9287H45.6133C44.0879 29.9287 42.6484 30.0898 41.2949 30.4121L40.7793 30.1865C38.8027 30.5088 37.3633 30.6699 36.4609 30.6699C36.4609 31.293 36.0312 31.8945 35.1719 32.4746H34.9141V31.7012C32.9805 34.6016 29.0811 42.1533 23.2158 54.3564C22.8721 54.4424 21.1748 57.8369 18.124 64.54C16.9854 66.7529 16.3086 67.8594 16.0938 67.8594C15.75 67.8594 15.5781 67.6875 15.5781 67.3438C16.1367 66.0332 16.5664 65.1846 16.8672 64.7979C16.6953 64.4541 16.6094 64.1963 16.6094 64.0244H16.3516C16.3516 64.7119 15.9219 65.0557 15.0625 65.0557V64.54L14.8047 62.9932C15.3203 61.876 15.5781 61.1133 15.5781 60.7051V59.7061C14.5254 60.7158 13.6768 61.3066 13.0322 61.4785L12.7744 60.9629V60.4473C14.1279 58.9434 14.8047 57.9336 14.8047 57.418H14.5791C13.8916 57.418 13.5479 57.1602 13.5479 56.6445C16.8564 51.0801 21.0137 43.1846 26.0195 32.958L26.2773 31.959H24.2471C23.5381 31.959 22.8613 31.873 22.2168 31.7012C21.5508 31.873 20.8633 31.959 20.1543 31.959C19.3594 31.959 18.5107 31.873 17.6084 31.7012L15.3203 31.959C12.291 31.8301 10.2607 31.5723 9.22949 31.1855H5.91016C5.60938 31.1855 5.17969 30.6807 4.62109 29.6709C3.95508 29.6709 3.62207 29.4131 3.62207 28.8975L3.87988 28.3818C3.64355 28.3818 3.2998 27.877 2.84863 26.8672C2.84863 26.4805 3.27832 26.2227 4.1377 26.0938V25.5781C3.62207 25.5781 3.36426 25.417 3.36426 25.0947L1.5918 25.3203H1.33398C0.990234 25.3203 0.818359 25.1592 0.818359 24.8369C0.861328 24.4932 1.0332 24.3213 1.33398 24.3213C1.65625 24.4932 1.90332 24.5791 2.0752 24.5791C2.0752 23.5479 3.69727 23.0322 6.94141 23.0322C7.30664 23.0322 7.63965 23.1182 7.94043 23.29L9.4873 23.0322C10.1533 23.0322 10.4863 23.1182 10.4863 23.29L13.0322 23.0322H14.8047C17.2539 23.0322 20.0576 23.1182 23.2158 23.29C23.4092 23.29 23.667 23.2041 23.9893 23.0322C24.9131 23.2041 25.6758 23.29 26.2773 23.29H30.5957C31.7773 22.2158 34.4092 17.7256 38.4912 9.81934L40.5215 5.98438V5.72656L40.2637 4.46973C41.9609 4.2334 42.8096 3.29883 42.8096 1.66602C43.8623 1.66602 44.7109 1.32227 45.3555 0.634766ZM83.0283 5.72656V5.98438C84.8545 6.32813 86.0469 6.5 86.6055 6.5L86.8633 5.98438V5.72656H83.0283ZM50.9629 5.98438V6.24219H51.9941V5.98438H50.9629ZM48.9326 8.78809V9.30371C51.4678 9.47559 53.3369 9.56152 54.54 9.56152H55.0234C55.3672 9.56152 55.5391 9.38965 55.5391 9.0459L55.0234 8.78809H48.9326ZM63.4346 9.56152C63.9932 9.88379 64.4229 10.0449 64.7236 10.0449V10.3027H62.6611V10.0449C62.6611 9.72266 62.9189 9.56152 63.4346 9.56152ZM7.94043 25.8359H6.42578V26.3516H7.4248C7.94043 26.3516 8.19824 26.4375 8.19824 26.6094L9.4873 26.3516H12.7744C12.7744 26.0508 12.3555 25.793 11.5176 25.5781C10.0781 25.75 8.88574 25.8359 7.94043 25.8359ZM6.68359 29.6709V30.1865L8.97168 30.4121L10.2285 30.1865V29.6709H6.68359ZM13.29 29.9287V30.1865C13.6338 30.1865 13.8057 30.2617 13.8057 30.4121C14.1279 30.2617 14.3857 30.1865 14.5791 30.1865V29.9287H13.29ZM15.3203 29.9287V30.1865L16.6094 30.4121H20.4121C20.7559 30.4121 20.9277 30.251 20.9277 29.9287H20.4121C20.2402 29.9287 20.1543 30.0146 20.1543 30.1865L18.8975 29.9287H15.3203ZM23.9893 54.8721V55.3877C23.0869 57.4072 22.4961 58.417 22.2168 58.417V57.9014C23.0977 55.8818 23.6885 54.8721 23.9893 54.8721ZM19.8965 62.9932V63.5088C19.8965 63.8525 19.7354 64.0244 19.4131 64.0244V63.5088C19.4561 63.165 19.6172 62.9932 19.8965 62.9932ZM19.1553 64.54V65.0557C18.7471 66.2373 18.4033 66.8281 18.124 66.8281V66.5703C18.3389 65.3027 18.6826 64.626 19.1553 64.54ZM17.8662 67.3438V67.8594C17.415 68.8691 17.082 69.374 16.8672 69.374V69.1162C17.082 67.9346 17.415 67.3438 17.8662 67.3438ZM65.6904 8.30469H66.1094L65.916 10.2383H66.335L67.8496 8.30469V8.49805C67.3125 11.291 66.1523 14.5459 64.3691 18.2627V18.4883H64.5947C66.249 14.3848 67.1943 12.29 67.4307 12.2041H68.3008V12.4297C68 13.3535 67.8496 13.998 67.8496 14.3633L68.0752 14.8145L54.1855 48.8779C53.0254 52.1865 51.5 54.5713 49.6094 56.0322C49.6094 56.7197 48.9648 57.2354 47.6758 57.5791C47.6758 57.7725 47.4609 57.9873 47.0312 58.2236H46.5801C46.5801 57.4287 46.8701 56.5586 47.4502 55.6133V54.9688C47.4502 54.668 47.3105 54.5176 47.0312 54.5176C46.5801 55.3555 46.3545 55.8604 46.3545 56.0322H45.9355C47.2461 50.9404 48.4062 47.6855 49.416 46.2676C53.4336 35.2461 58.6436 22.9463 65.0459 9.36816C65.3682 9.36816 65.583 9.01367 65.6904 8.30469ZM55.9258 39.7578C55.625 40.5312 55.4746 40.9717 55.4746 41.0791C55.668 41.0791 55.958 40.6387 56.3447 39.7578H55.9258ZM48.7715 55.8389V56.0322H48.9648C48.9648 55.8818 49.3301 55.3125 50.0605 54.3242H49.6094C49.0508 54.5391 48.7715 55.0439 48.7715 55.8389ZM84.4785 7.75684C84.3496 8.83105 84.2852 9.49707 84.2852 9.75488L84.6396 9.56152C84.8975 9.60449 85.0264 9.72266 85.0264 9.91602C84.7686 10.7969 84.6396 11.2803 84.6396 11.3662H84.2852L84.0918 10.1094H83.9307C83.2002 11.0762 82.835 11.9248 82.835 12.6553V12.8164C82.9639 12.8164 83.1465 12.8809 83.3828 13.0098C83.5117 12.7949 83.5762 12.5586 83.5762 12.3008H83.9307C83.3506 14.2559 81.2344 19.3262 77.582 27.5117C75.6484 32.1523 74.1982 35.2354 73.2314 36.7607C72.8662 37.9854 72.4365 38.7158 71.9424 38.9521C71.9424 38.8232 71.8887 38.7588 71.7812 38.7588C71.7812 39.4033 71.4805 40.0049 70.8789 40.5635C70.75 40.7783 70.6855 41.0254 70.6855 41.3047V41.4658H71.04C71.04 41.7236 70.9219 41.8525 70.6855 41.8525L70.3311 41.6592C70.3311 42.0244 69.7295 43.292 68.5264 45.4619V46.0098H69.042V46.2031C68.8701 46.2031 68.6338 46.3213 68.333 46.5576L68.5264 46.9121V47.2666H68.1396V46.9121L67.2373 48.2012C67.1299 48.3945 67.0762 48.6309 67.0762 48.9102V49.2646H67.4307V49.6514C67.4307 49.8232 67.248 49.9951 66.8828 50.167H66.6895L66.8828 49.8125H66.6895C66.3242 49.8125 66.0234 50.3604 65.7871 51.4561C65.7871 51.6709 66.335 51.9072 67.4307 52.165C67.5381 52.165 67.5918 52.1113 67.5918 52.0039L68.8809 52.165C69.1816 52.165 70.8145 52.1113 73.7793 52.0039C75.4551 52.1113 76.54 52.165 77.0342 52.165L77.3887 52.0039C77.6035 52.1113 77.8506 52.165 78.1299 52.165H78.8389C79.29 52.165 79.8379 52.1113 80.4824 52.0039C80.6113 52.0039 80.6758 52.0576 80.6758 52.165L82.4805 52.0039H84.833C84.9619 52.0039 85.0264 52.0576 85.0264 52.165C85.2412 52.0576 85.4131 52.0039 85.542 52.0039C88.2705 52.0039 90.8164 51.8857 93.1797 51.6494C93.2871 51.6494 93.3408 51.7031 93.3408 51.8105L100.979 51.2627L101.333 51.4561C101.548 51.3271 101.784 51.2627 102.042 51.2627C102.171 51.2627 102.235 51.3271 102.235 51.4561C102.472 51.3271 102.654 51.2627 102.783 51.2627C103.191 51.2627 104.223 51.209 105.877 51.1016V51.2627C107.639 51.0264 111.688 50.6611 118.026 50.167V50.5537C117.769 50.5537 117.64 50.7363 117.64 51.1016H117.092L116.189 51.2627V51.1016C112.559 51.5742 109.841 51.8105 108.036 51.8105H107.682C107.402 51.8105 107.155 51.875 106.94 52.0039C106.833 52.0039 106.779 51.9395 106.779 51.8105C104.996 52.0469 101.913 52.2295 97.5303 52.3584V52.7129H97.6914C101.107 52.7129 104.438 52.5947 107.682 52.3584V52.7129C107.188 52.7129 106.457 52.8418 105.49 53.0996C104.867 52.9707 104.513 52.9062 104.427 52.9062L102.59 53.0996C102.59 53.3359 102.772 53.4541 103.138 53.4541C103.267 53.4541 103.449 53.3896 103.686 53.2607C103.814 53.2607 103.997 53.3252 104.233 53.4541C106.489 53.3252 109.271 53.0781 112.58 52.7129V52.5518L111.678 52.7129C111.398 52.7129 111.151 52.6592 110.937 52.5518L109.841 52.7129H108.036V52.3584H109.486L111.291 52.165V52.3584L111.678 52.165C111.785 52.165 111.839 52.2295 111.839 52.3584L112.741 52.165H114.03C114.138 52.165 114.191 52.2295 114.191 52.3584C114.75 52.1221 115.545 52.0039 116.576 52.0039H117.479C117.715 52.0039 117.833 52.1865 117.833 52.5518L119.992 52.3584V52.5518C121.217 52.1865 122.549 52.0039 123.988 52.0039L124.182 52.3584C124.182 52.5947 124.063 52.7129 123.827 52.7129H123.44C123.183 52.7129 122.946 52.6592 122.731 52.5518C121.55 52.917 120.766 53.0996 120.379 53.0996H117.833V53.2607C117.876 53.4971 117.994 53.6152 118.188 53.6152C120.4 53.5078 122.098 53.3359 123.279 53.0996C123.494 53.207 123.73 53.2607 123.988 53.2607C123.408 54.1201 122.742 54.5498 121.99 54.5498C107.982 55.7529 99.7109 56.3545 97.1758 56.3545V56.1611L96.7891 56.3545H94.791L92.9863 56.5156V56.709H98.2393C98.8623 56.709 99.7754 56.6445 100.979 56.5156L101.14 56.9023C100.194 57.0957 97.5947 57.332 93.3408 57.6113V57.4502C93.2334 57.4502 93.1797 57.5039 93.1797 57.6113C90.9453 57.7402 89.3125 57.8047 88.2812 57.8047H86.2832L85.1875 57.9658C85.0801 57.9658 85.0264 57.9121 85.0264 57.8047L83.7373 57.9658H79.0322C78.9033 57.9658 78.8389 57.9121 78.8389 57.8047L78.4844 57.9658H77.0342C76.7979 57.9658 76.6797 57.8477 76.6797 57.6113C76.7871 57.6113 76.8408 57.5576 76.8408 57.4502L78.1299 57.6113C78.5596 57.6113 79.0967 57.5576 79.7412 57.4502L80.1279 57.6113C80.6006 57.5039 81.0195 57.4502 81.3848 57.4502C81.3848 57.1924 81.2666 57.0635 81.0303 57.0635C80.8154 57.1924 80.5684 57.2568 80.2891 57.2568V56.9023H81.1914V56.709C79.9238 56.4727 78.4736 56.3545 76.8408 56.3545V56.1611L76.4863 56.3545H74.4883C72.9199 56.3545 71.2871 56.29 69.5898 56.1611L67.2373 56.5156C64.6377 56.2793 63.1338 56.1611 62.7256 56.1611C62.3174 56.3975 61.9521 56.5156 61.6299 56.5156C61.1787 56.1719 60.749 56 60.3408 56V55.8066L60.8887 54.7109L60.7275 54.3564C60.7275 54.0342 60.9102 53.6152 61.2754 53.0996L60.8887 52.9062H60.1797C60.1797 53.3574 59.9326 53.7227 59.4385 54.002H59.084C59.4062 53.0137 59.8252 52.165 60.3408 51.4561H60.5342C60.8994 51.4561 61.082 51.7568 61.082 52.3584H61.4365C61.6729 52.3584 61.791 52.2402 61.791 52.0039L61.6299 49.8125C62.167 49.4043 63.3701 46.9873 65.2393 42.5615C65.8408 41.6377 66.1416 40.6709 66.1416 39.6611C65.9053 39.6611 65.7871 39.543 65.7871 39.3066C66.2383 39.1133 66.8398 38.0283 67.5918 36.0518C71.4805 28.4033 75.5947 19.5732 79.9346 9.56152H80.1279C80.2354 9.77637 80.2891 10.0234 80.2891 10.3027H80.6758C81.2344 8.8418 81.6533 8.11133 81.9326 8.11133L82.126 8.46582C82.126 8.78809 81.6426 10.002 80.6758 12.1074L81.3848 12.6553C82.5234 11.6455 83.4258 10.0127 84.0918 7.75684H84.4785ZM78.8389 13.0098V13.5576C79.0322 13.5576 79.2793 13.3105 79.5801 12.8164H79.3867C79.1504 12.9453 78.9678 13.0098 78.8389 13.0098ZM77.0342 17.0059V18.2627H77.2275C77.2275 17.9834 77.4102 17.6182 77.7754 17.167V16.2646C78.1836 16.2432 78.5381 15.5234 78.8389 14.1055V13.9121C78.4951 14.1055 78.0762 14.9541 77.582 16.458C77.4316 16.8232 77.249 17.0059 77.0342 17.0059ZM76.1318 19.3584V19.9062H76.3252C76.6689 19.1543 76.8408 18.6709 76.8408 18.4561C76.6904 18.4561 76.4541 18.7568 76.1318 19.3584ZM63.4346 44.3662H63.6279V44.5596C63.6279 44.7959 63.499 44.9141 63.2412 44.9141L63.0801 44.5596L63.4346 44.3662ZM67.9785 47.6533L68.333 47.8145C68.0107 48.7812 67.71 49.2646 67.4307 49.2646V49.1035C67.4307 48.9531 67.6133 48.4697 67.9785 47.6533ZM126.341 51.4561C127.071 51.585 127.437 51.7031 127.437 51.8105L127.791 51.6494H127.984V52.0039H126.534L125.632 52.165L125.438 51.8105V51.6494C125.847 51.6494 126.147 51.585 126.341 51.4561ZM129.08 52.5518H129.241C129.499 52.5732 129.628 52.6914 129.628 52.9062H129.08V52.5518ZM97.3369 53.4541H98.9805L98.7871 53.0996C98.6797 53.0996 98.626 53.1533 98.626 53.2607L97.6914 53.0996C97.4551 53.1211 97.3369 53.2393 97.3369 53.4541ZM92.6318 53.4541V53.6152H93.7275C93.7275 53.3789 93.5449 53.2607 93.1797 53.2607C92.9434 53.3896 92.7607 53.4541 92.6318 53.4541ZM96.0801 53.2607V53.4541H96.9824V53.2607H96.0801ZM83.0283 53.6152H80.4824V53.8086H82.4805V54.002L82.835 53.8086H87.54C87.54 53.5723 87.4219 53.4541 87.1855 53.4541C86.498 53.4541 85.5312 53.5078 84.2852 53.6152C84.1562 53.6152 84.0918 53.5615 84.0918 53.4541L83.0283 53.6152ZM87.7334 53.4541V53.6152C88.335 53.6152 89.0547 53.6797 89.8926 53.8086C90.1289 53.6797 90.3115 53.6152 90.4404 53.6152V53.4541H87.7334ZM90.9883 53.4541V53.6152H91.7295V53.4541H90.9883ZM61.082 54.9043V55.0654C61.125 55.3232 61.2432 55.4521 61.4365 55.4521V54.9043H61.082ZM116.737 55.4521V55.6133C116.737 56.1074 113.601 56.4082 107.327 56.5156L106.393 56.709V56.5156L106.038 56.709H105.136V56.3545C106.468 56.3545 110.335 56.0537 116.737 55.4521ZM118.026 55.4521H118.929V55.8066H118.026V55.4521ZM81.3848 56.5156V56.709H83.7373C83.8662 56.709 83.9307 56.7734 83.9307 56.9023C84.0811 56.7734 84.5 56.709 85.1875 56.709V56.5156H82.835C82.5557 56.5156 82.3193 56.4619 82.126 56.3545C81.9111 56.4619 81.6641 56.5156 81.3848 56.5156ZM101.333 56.5156H104.233V56.9023H103.492C103.385 56.9023 103.331 56.8379 103.331 56.709C103.03 56.8379 102.429 56.9561 101.526 57.0635L101.333 56.709V56.5156ZM78.291 56.9023H78.8389V57.2568H78.291V56.9023ZM64.1758 57.2568L65.0781 57.4502H70.8789V57.8047H63.9824V57.6113L64.1758 57.2568ZM71.5879 57.4502H72.3291V57.8047H71.5879V57.4502ZM102.074 7.72461V8.04688C101.816 8.64844 101.559 9.07812 101.301 9.33594C101.58 9.78711 101.784 10.6895 101.913 12.043C102.192 12.043 102.568 14.2988 103.041 18.8105C103.578 21.5391 104.062 25.7607 104.491 31.4756H104.813C109.69 27.5654 115.362 22.6455 121.829 16.7158C124.923 14.0088 126.856 12.5586 127.63 12.3652L127.791 12.6875C127.168 13.0527 126.738 13.4287 126.502 13.8154C126.717 13.8584 126.824 13.9658 126.824 14.1377L126.502 14.6211V14.7822C126.674 14.7822 126.889 14.8896 127.146 15.1045C127.146 14.9541 127.522 14.5781 128.274 13.9766H128.758C128.844 14.9219 128.887 15.459 128.887 15.5879C126.115 22.3125 121.518 32.002 115.094 44.6562L107.714 61.3496C106.962 61.3496 105.834 63.3262 104.33 67.2793L103.041 69.5352L102.88 69.2129C104.384 66.3555 105.136 64.7012 105.136 64.25L104.813 64.0889C104.685 64.7119 104.523 65.0234 104.33 65.0234L104.169 64.7334C104.169 64.54 104.813 62.9287 106.103 59.8994H105.941C105.383 60.2002 104.577 61.7041 103.524 64.4111H103.363L103.524 64.7334V65.0234C103.524 65.2383 103.417 65.3457 103.202 65.3457C102.987 65.3457 102.88 65.2383 102.88 65.0234C102.88 64.7656 103.578 63.165 104.975 60.2217C104.975 59.8564 105.565 57.9336 106.747 54.4531C106.747 53.3359 109.261 47.6641 114.288 37.4375L120.54 23.9346C120.647 23.7412 120.701 23.5264 120.701 23.29H120.54C115.771 27.7588 110.582 32.4209 104.975 37.2764L104.813 37.5986C104.921 38.1572 104.975 38.6299 104.975 39.0166L104.169 39.3389C104.276 39.5967 104.384 40.1338 104.491 40.9502H104.008C103.965 39.6611 103.804 39.0166 103.524 39.0166H102.719L102.558 39.8223C102.558 41.1543 102.719 42.4434 103.041 43.6895L102.719 43.8506C102.482 43.5713 102.214 42.2822 101.913 39.9834H101.623L101.462 41.1113V41.5947H101.301L100.173 40.6279V40.4668L100.817 39.6611V38.5332C100.817 38.2969 100.764 38.0928 100.656 37.9209C100.656 37.8135 100.71 37.7598 100.817 37.7598L100.656 36.9541V36.793C100.227 28.8438 99.7432 23.5908 99.2061 21.0342C99.2061 20.9268 99.2598 20.873 99.3672 20.873C99.2598 20.4648 99.2061 20.0459 99.2061 19.6162H99.0449C94.6621 29.0693 91.7725 35.4824 90.376 38.8555C89.8174 39.8223 89.4951 40.3057 89.4092 40.3057V39.8223C89.9463 38.8555 90.6445 37.1475 91.5039 34.6982H91.1816C87.8516 42.6475 85.3379 48.4805 83.6406 52.1973C82.7383 52.8418 82.0938 53.4326 81.707 53.9697C81.707 53.8623 81.6533 53.8086 81.5459 53.8086C82.6201 50.9941 83.1572 49.4365 83.1572 49.1357V48.9746H82.9961C81.6426 51.4883 80.6758 53.4756 80.0957 54.9365L79.6123 55.2588H79.29V55.0977C80.6865 52.6699 82.6631 48.1689 85.2197 41.5947V40.7891H85.0586C85.0586 41.0469 84.1562 43.3994 82.3516 47.8467C82.0938 48.4912 81.8789 48.8135 81.707 48.8135C81.5996 48.6201 81.5459 48.459 81.5459 48.3301L81.707 47.5244C81.4277 47.5244 81.2666 47.3203 81.2236 46.9121C82.6416 43.9688 85.5312 37.5449 89.8926 27.6406C93.2656 20.1641 96.3164 14.4922 99.0449 10.625H99.2061L99.0449 10.9473V11.2373H99.5283C99.7217 11.2373 100.259 10.4424 101.14 8.85254C101.655 8.10059 101.967 7.72461 102.074 7.72461ZM95.1777 22.1621V22.4844C95.6504 22.1621 96.8857 19.7021 98.8838 15.1045V14.46C97.5303 16.6943 96.2949 19.2617 95.1777 22.1621ZM123.763 24.5791H124.085C125.804 20.6475 126.878 17.9189 127.308 16.3936C126.47 17.7256 125.288 20.4541 123.763 24.5791ZM121.829 18.9717V19.1328C121.979 19.1328 122.141 18.9717 122.312 18.6494V18.4883C122.162 18.4883 122.001 18.6494 121.829 18.9717ZM118.155 24.2568H118.316C120.271 22.624 121.496 21.5498 121.99 21.0342V20.5508L118.155 24.2568ZM119.283 21.1953V21.5176C119.477 21.4102 119.638 21.3564 119.767 21.3564V21.0342C119.552 21.1416 119.391 21.1953 119.283 21.1953ZM116.866 23.6123H117.027C117.779 23.1611 118.155 22.8389 118.155 22.6455V22.4844H117.994C117.822 22.4844 117.446 22.8604 116.866 23.6123ZM93.2441 23.1289L92.3096 25.5459V25.707H92.4707C92.4707 25.5352 92.7822 24.7295 93.4053 23.29V23.1289H93.2441ZM102.396 23.6123V23.9346C102.396 26.5127 102.504 29.6172 102.719 33.248H103.041C102.826 28.5859 102.719 25.5352 102.719 24.0957C102.611 23.8809 102.558 23.7197 102.558 23.6123H102.396ZM116.061 24.0957V24.418C116.555 24.2031 116.823 23.9883 116.866 23.7734H116.705C116.447 23.9883 116.232 24.0957 116.061 24.0957ZM94.0498 24.2568V24.9014H94.2109L94.3721 24.2568H94.0498ZM110.131 28.2852V28.4463H110.292C110.528 28.4248 111.86 27.1895 114.288 24.7402V24.5791C113.021 25.417 111.635 26.6523 110.131 28.2852ZM106.747 32.6035V33.0869L108.681 31.4756C110.872 29.7783 113.225 27.5332 115.738 24.7402H115.577C112.526 27.5547 109.583 30.1758 106.747 32.6035ZM115.577 26.6738H115.738C116.92 25.8145 117.511 25.2236 117.511 24.9014H117.35C117.199 24.9014 116.608 25.4922 115.577 26.6738ZM88.4424 34.376C88.915 34.2041 90.2041 31.3682 92.3096 25.8682C91.5576 26.5986 90.2686 29.4346 88.4424 34.376ZM109.164 29.2197V29.3809H109.325C109.454 29.3809 109.723 29.123 110.131 28.6074H109.97C109.476 28.8008 109.207 29.0049 109.164 29.2197ZM100.979 29.2197V31.3145C100.979 32.8184 101.086 34.1611 101.301 35.3428H101.623C101.516 33.2803 101.354 31.5078 101.14 30.0254H101.301C101.193 29.8535 101.14 29.585 101.14 29.2197H100.979ZM108.842 29.3809C108.842 29.4668 108.573 29.7354 108.036 30.1865V30.5088C108.595 29.9717 108.971 29.7031 109.164 29.7031C109.164 29.4883 109.057 29.3809 108.842 29.3809ZM119.767 31.6367C119.767 31.8301 119.659 32.1523 119.444 32.6035H119.767C119.767 32.2383 119.81 31.9697 119.896 31.7979V31.6367H119.767ZM104.975 34.376V34.6982C105.275 34.6982 105.812 34.2148 106.586 33.248V32.9258C105.512 33.8066 104.975 34.29 104.975 34.376ZM91.8262 33.248L91.5039 34.2148V34.376H91.665C91.665 34.2256 91.8262 33.9033 92.1484 33.4092L91.8262 33.248ZM101.301 38.0498V38.3721C101.322 38.5869 101.43 38.6943 101.623 38.6943H101.784V37.7598H101.623C101.408 37.7812 101.301 37.8779 101.301 38.0498ZM104.169 38.0498V38.2109L104.33 39.0166H104.491V38.3721C104.491 38.1572 104.384 38.0498 104.169 38.0498ZM89.4092 40.4668V40.7891C89.1943 41.1543 89.0869 41.4766 89.0869 41.7559H88.7646C88.958 40.8965 89.1729 40.4668 89.4092 40.4668ZM110.904 46.1064C109.271 49.7158 108.154 52.4443 107.553 54.292V54.4531C107.746 54.4531 108.283 53.2715 109.164 50.9082C109.336 50.8438 109.97 49.2969 111.065 46.2676V46.1064H110.904ZM105.619 61.9941C105.404 62.6816 105.297 63.0576 105.297 63.1221C105.727 62.9502 105.941 62.5742 105.941 61.9941H105.619ZM155.86 10.0127C156.097 10.1631 156.376 10.2383 156.698 10.2383C157.171 10.2383 157.525 10.1631 157.762 10.0127C158.535 10.1631 159.18 10.2383 159.695 10.2383H159.889L161.178 10.0127C161.414 10.1631 161.693 10.2383 162.016 10.2383C162.338 10.2383 162.617 10.1631 162.854 10.0127C163.648 10.1631 164.218 10.2383 164.562 10.2383L166.044 10.0127L166.463 10.2383C166.764 10.2383 166.914 10.1631 166.914 10.0127C168.139 10.1631 168.837 10.2383 169.009 10.2383C170.362 10.2383 176.034 10.3027 186.024 10.4316V10.6572L186.443 10.4316C187.689 10.582 188.463 10.6572 188.764 10.6572V11.0762H188.57C188.42 11.0762 188.345 11.0117 188.345 10.8828L187.926 11.0762C187.775 11.0762 187.7 11.0117 187.7 10.8828L187.281 11.0762L186.862 10.8828C185.874 10.9688 185.38 11.1084 185.38 11.3018C185.509 11.5811 185.573 11.7959 185.573 11.9463H187.7C187.7 12.1611 187.851 12.4404 188.151 12.7842C187.356 12.999 186.647 13.3535 186.024 13.8477C185.917 13.8477 185.487 13.7725 184.735 13.6221C184.456 13.7725 184.241 13.8477 184.091 13.8477C183.962 13.8477 183.897 13.7725 183.897 13.6221L182.415 13.8477H179.225C178.945 13.8906 178.806 14.0303 178.806 14.2666C179.364 14.417 179.858 14.4922 180.288 14.4922V14.6855C180.288 14.9004 180.073 15.1152 179.644 15.3301H177.936C177.355 15.3301 176.582 15.4053 175.615 15.5557C175.379 15.4053 175.024 15.3301 174.552 15.3301C174.272 15.4805 174.058 15.5557 173.907 15.5557V15.3301C173.671 15.4805 173.392 15.5557 173.069 15.5557V15.9746H175.809V16.3936C170.652 16.5225 166.624 16.7373 163.724 17.0381C163.573 17.0381 163.358 16.9629 163.079 16.8125C155.71 17.2422 150.468 17.457 147.353 17.457C146.622 17.457 145.634 18.7246 144.388 21.2598H143.969V21.0664C144.248 20.5937 144.388 20.2393 144.388 20.0029C143.937 20.0029 142.164 22.8281 139.07 28.4785L139.296 28.9297C139.575 28.7793 139.79 28.7041 139.94 28.7041C139.94 29.0264 144.893 29.3809 154.797 29.7676C154.797 29.9609 155.506 30.1006 156.924 30.1865C156.924 30.4658 156.784 30.6055 156.505 30.6055H155.441V31.0566C156.451 31.1855 157.01 31.25 157.117 31.25V31.6689H154.378L153.314 31.8945V32.3135C154.303 32.3135 154.797 32.5928 154.797 33.1514C154.797 33.4521 155.151 33.6025 155.86 33.6025V34.0215C153.927 34.4512 152.154 34.666 150.543 34.666H146.74L145.451 34.8594C145.215 34.7305 144.86 34.666 144.388 34.666C142.433 35.2246 140.735 35.5039 139.296 35.5039L138.458 35.2783L136.75 35.7295C136.471 35.5791 136.256 35.5039 136.105 35.5039C135.375 35.9551 134.526 37.2334 133.56 39.3389C130.294 45.5264 128.661 48.9854 128.661 49.7158L129.725 49.9414H132.077C133.173 49.9414 134.161 50.0166 135.042 50.167C135.708 50.0166 136.696 49.9414 138.007 49.9414L138.458 50.167C138.694 50.0166 138.974 49.9414 139.296 49.9414L140.553 50.167C140.703 50.167 140.778 50.0918 140.778 49.9414L151.188 50.5859V51.0049L149.898 51.2305C149.898 50.9297 149.759 50.7793 149.479 50.7793C149.479 51.5312 147.288 51.9609 142.905 52.0684V52.2939H143.743L144.194 52.0684C144.882 52.2188 145.226 52.3584 145.226 52.4873L145.677 52.2939H145.87C146.021 52.2939 146.096 52.3584 146.096 52.4873L146.515 52.2939L149.898 52.4873C150.049 52.4873 150.264 52.4229 150.543 52.2939C150.801 52.4229 151.435 52.5625 152.444 52.7129C153.024 52.5625 153.529 52.4873 153.959 52.4873V52.9062C153.486 52.9062 153.196 53.3359 153.089 54.1953C151.542 54.1953 150.769 54.2598 150.769 54.3887C150.489 54.2598 150.274 54.1953 150.124 54.1953C148.577 54.2812 147.804 54.4209 147.804 54.6143C147.804 55.3232 147.159 55.6777 145.87 55.6777H141.004C140.854 55.6777 140.778 55.6025 140.778 55.4521L140.359 55.6777H139.94C139.79 55.6777 139.715 55.6025 139.715 55.4521L139.296 55.6777C132.851 55.8281 128.317 55.9033 125.696 55.9033C125.138 56.4189 123.655 59.2441 121.249 64.3789H121.023L120.83 63.96C122.807 59.6631 123.935 57.4717 124.214 57.3857C123.999 56.8057 123.784 56.5156 123.569 56.5156H123.376C123.376 57.0098 122.882 57.8584 121.894 59.0615H121.668C122.098 57.6006 122.312 56.6123 122.312 56.0967C122.162 56.0967 122.087 56.1719 122.087 56.3223C119.96 55.8926 118.896 55.4629 118.896 55.0332V54.1953L119.348 53.5508V53.1318C118.488 52.9814 118.059 52.7666 118.059 52.4873C118.381 51.6494 119.305 51.0801 120.83 50.7793C121.131 49.7695 123.892 44.1836 129.112 34.0215C135.042 23.5156 138.007 18.1338 138.007 17.876V17.0381L137.588 16.3936L137.169 16.5869H136.943V16.3936C136.965 16.0928 137.749 15.6631 139.296 15.1045C139.532 14.2236 140.166 13.5898 141.197 13.2031L141.423 12.1396L140.359 11.9463C140.08 12.0752 139.865 12.1396 139.715 12.1396L139.521 11.7207L142.68 10.6572C143.475 10.5068 144.044 10.4316 144.388 10.4316C144.71 10.4316 144.989 10.5068 145.226 10.6572L152.251 10.2383L152.67 10.4316C154.453 10.2598 155.517 10.1201 155.86 10.0127ZM149.898 11.9463V12.1396L150.962 12.3652H151.413C151.714 12.3652 151.993 12.29 152.251 12.1396C152.487 12.29 152.767 12.3652 153.089 12.3652H153.508V11.9463C153.229 11.9463 153.089 11.8711 153.089 11.7207C152.229 11.8711 151.166 11.9463 149.898 11.9463ZM153.733 12.1396H154.378V11.7207H154.152C153.873 11.7637 153.733 11.9033 153.733 12.1396ZM154.797 11.7207L154.571 12.1396H154.797C155.57 12.0107 156.204 11.9463 156.698 11.9463V11.7207H154.797ZM138.651 11.7207H139.296V12.1396H138.651V11.7207ZM142.905 12.5586V12.7842H143.55C143.829 12.7842 143.969 12.6445 143.969 12.3652L143.55 12.1396H143.324C143.045 12.1826 142.905 12.3223 142.905 12.5586ZM157.987 14.4922V14.6855H159.47V14.4922H157.987ZM154.378 14.6855V14.9111H155.216V14.6855H154.378ZM166.463 15.5557C166.463 15.6631 166.678 15.8672 167.107 16.168L169.46 15.749C170.019 15.8564 170.298 15.9961 170.298 16.168C170.835 16.0391 171.469 15.9746 172.199 15.9746V15.749L170.717 15.5557L167.752 15.749L166.463 15.5557ZM155.441 15.749V16.168H156.698C156.698 15.8887 156.559 15.749 156.279 15.749H155.441ZM161.371 15.749V15.9746H162.241V15.749H161.371ZM152.444 15.9746V16.168H154.152V15.9746H152.444ZM143.324 22.5488V22.9678C143.195 23.2471 143.131 23.4619 143.131 23.6123H142.68V23.3867C142.895 22.8281 143.109 22.5488 143.324 22.5488ZM125.052 45.9131V46.1064C125.353 46.1064 125.503 45.9668 125.503 45.6875V45.4941C125.202 45.5371 125.052 45.6768 125.052 45.9131ZM124.633 46.332C123.795 48.0293 123.376 49.0176 123.376 49.2969H124.021C124.708 47.7285 125.052 46.7402 125.052 46.332H124.633ZM128.887 53.5508V53.9697H129.306L130.595 54.1953C131.304 54.002 131.658 53.7871 131.658 53.5508H128.887ZM131.852 53.7764V53.9697H132.915V53.7764H131.852ZM189.666 0.634766C190.311 1.32227 191.073 1.66602 191.954 1.66602C199.001 1.83789 204.265 1.92383 207.745 1.92383L209.518 1.66602C211.387 2.00977 214.019 2.26758 217.413 2.43945C219.519 2.26758 220.625 2.18164 220.732 2.18164C224.127 2.35352 227.693 2.60059 231.432 2.92285C232.098 2.75098 232.688 2.66504 233.204 2.66504C234.729 2.87988 235.492 3.1377 235.492 3.43848C235.492 3.61035 235.073 4.20117 234.235 5.21094V6.5H234.719V6.75781L234.493 7.27344C235.847 7.27344 236.523 7.52051 236.523 8.01465C236.352 8.01465 236.266 8.10059 236.266 8.27246C229.391 8.61621 220.646 8.87402 210.033 9.0459V8.78809L209.518 9.0459H201.88V9.30371C203.878 9.47559 205.328 9.56152 206.23 9.56152C206.574 9.60449 206.746 9.76562 206.746 10.0449L206.23 10.3027C205.779 10.3027 203.48 10.2168 199.334 10.0449L198.077 10.3027C197.411 10.1309 196.734 10.0449 196.047 10.0449H193.759C192.62 10.0449 190.923 12 188.667 15.9102C187.185 18.1875 185.992 20.5615 185.09 23.0322C185.777 23.1826 186.121 23.3545 186.121 23.5479L186.637 23.29C186.787 23.29 186.862 23.376 186.862 23.5479L187.378 23.29H189.183C189.333 23.29 189.408 23.376 189.408 23.5479L189.924 23.29H190.439C190.826 23.29 191.17 23.376 191.471 23.5479C191.75 23.376 192.083 23.29 192.47 23.29C192.792 23.29 193.308 23.7197 194.017 24.5791C196.101 24.4072 197.196 24.3213 197.304 24.3213C197.647 24.4932 197.905 24.5791 198.077 24.5791V24.8369C196.509 24.8369 195.316 24.9229 194.5 25.0947C194.178 24.9229 193.931 24.8369 193.759 24.8369V25.3203H195.016L196.788 25.0947C196.788 25.3525 197.562 25.6855 199.108 26.0938L199.592 25.8359H200.365V26.3516H198.335C197.519 26.3516 196.67 26.4375 195.789 26.6094L194.242 26.3516C193.211 26.3516 191.267 26.6094 188.409 27.125C188.452 27.4688 188.624 27.6406 188.925 27.6406C189.44 27.6406 191.052 27.7158 193.759 27.8662L194.758 27.6406C195.016 27.791 195.531 27.8662 196.305 27.8662C196.305 28.21 196.133 28.3818 195.789 28.3818H192.212C191.976 28.3818 191.729 28.6396 191.471 29.1553C191.643 29.1553 191.729 29.2412 191.729 29.4131L191.213 29.6709C191.213 29.1553 191.041 28.8975 190.697 28.8975H189.408V29.4131H190.182V29.9287H189.924C188.398 29.9287 186.959 30.0898 185.605 30.4121L185.09 30.1865C183.113 30.5088 181.674 30.6699 180.771 30.6699C180.771 31.293 180.342 31.8945 179.482 32.4746H179.225V31.7012C177.291 34.6016 173.392 42.1533 167.526 54.3564C167.183 54.4424 165.485 57.8369 162.435 64.54C161.296 66.7529 160.619 67.8594 160.404 67.8594C160.061 67.8594 159.889 67.6875 159.889 67.3438C160.447 66.0332 160.877 65.1846 161.178 64.7979C161.006 64.4541 160.92 64.1963 160.92 64.0244H160.662C160.662 64.7119 160.232 65.0557 159.373 65.0557V64.54L159.115 62.9932C159.631 61.876 159.889 61.1133 159.889 60.7051V59.7061C158.836 60.7158 157.987 61.3066 157.343 61.4785L157.085 60.9629V60.4473C158.438 58.9434 159.115 57.9336 159.115 57.418H158.89C158.202 57.418 157.858 57.1602 157.858 56.6445C161.167 51.0801 165.324 43.1846 170.33 32.958L170.588 31.959H168.558C167.849 31.959 167.172 31.873 166.527 31.7012C165.861 31.873 165.174 31.959 164.465 31.959C163.67 31.959 162.821 31.873 161.919 31.7012L159.631 31.959C156.602 31.8301 154.571 31.5723 153.54 31.1855H150.221C149.92 31.1855 149.49 30.6807 148.932 29.6709C148.266 29.6709 147.933 29.4131 147.933 28.8975L148.19 28.3818C147.954 28.3818 147.61 27.877 147.159 26.8672C147.159 26.4805 147.589 26.2227 148.448 26.0938V25.5781C147.933 25.5781 147.675 25.417 147.675 25.0947L145.902 25.3203H145.645C145.301 25.3203 145.129 25.1592 145.129 24.8369C145.172 24.4932 145.344 24.3213 145.645 24.3213C145.967 24.4932 146.214 24.5791 146.386 24.5791C146.386 23.5479 148.008 23.0322 151.252 23.0322C151.617 23.0322 151.95 23.1182 152.251 23.29L153.798 23.0322C154.464 23.0322 154.797 23.1182 154.797 23.29L157.343 23.0322H159.115C161.564 23.0322 164.368 23.1182 167.526 23.29C167.72 23.29 167.978 23.2041 168.3 23.0322C169.224 23.2041 169.986 23.29 170.588 23.29H174.906C176.088 22.2158 178.72 17.7256 182.802 9.81934L184.832 5.98438V5.72656L184.574 4.46973C186.271 4.2334 187.12 3.29883 187.12 1.66602C188.173 1.66602 189.021 1.32227 189.666 0.634766ZM227.339 5.72656V5.98438C229.165 6.32813 230.357 6.5 230.916 6.5L231.174 5.98438V5.72656H227.339ZM195.273 5.98438V6.24219H196.305V5.98438H195.273ZM193.243 8.78809V9.30371C195.778 9.47559 197.647 9.56152 198.851 9.56152H199.334C199.678 9.56152 199.85 9.38965 199.85 9.0459L199.334 8.78809H193.243ZM207.745 9.56152C208.304 9.88379 208.733 10.0449 209.034 10.0449V10.3027H206.972V10.0449C206.972 9.72266 207.229 9.56152 207.745 9.56152ZM152.251 25.8359H150.736V26.3516H151.735C152.251 26.3516 152.509 26.4375 152.509 26.6094L153.798 26.3516H157.085C157.085 26.0508 156.666 25.793 155.828 25.5781C154.389 25.75 153.196 25.8359 152.251 25.8359ZM150.994 29.6709V30.1865L153.282 30.4121L154.539 30.1865V29.6709H150.994ZM157.601 29.9287V30.1865C157.944 30.1865 158.116 30.2617 158.116 30.4121C158.438 30.2617 158.696 30.1865 158.89 30.1865V29.9287H157.601ZM159.631 29.9287V30.1865L160.92 30.4121H164.723C165.066 30.4121 165.238 30.251 165.238 29.9287H164.723C164.551 29.9287 164.465 30.0146 164.465 30.1865L163.208 29.9287H159.631ZM168.3 54.8721V55.3877C167.397 57.4072 166.807 58.417 166.527 58.417V57.9014C167.408 55.8818 167.999 54.8721 168.3 54.8721ZM164.207 62.9932V63.5088C164.207 63.8525 164.046 64.0244 163.724 64.0244V63.5088C163.767 63.165 163.928 62.9932 164.207 62.9932ZM163.466 64.54V65.0557C163.058 66.2373 162.714 66.8281 162.435 66.8281V66.5703C162.649 65.3027 162.993 64.626 163.466 64.54ZM162.177 67.3438V67.8594C161.726 68.8691 161.393 69.374 161.178 69.374V69.1162C161.393 67.9346 161.726 67.3438 162.177 67.3438ZM213.965 7.75684C213.836 8.83105 213.771 9.49707 213.771 9.75488L214.126 9.56152C214.384 9.60449 214.513 9.72266 214.513 9.91602C214.255 10.7969 214.126 11.2803 214.126 11.3662H213.771L213.578 10.1094H213.417C212.687 11.0762 212.321 11.9248 212.321 12.6553V12.8164C212.45 12.8164 212.633 12.8809 212.869 13.0098C212.998 12.7949 213.062 12.5586 213.062 12.3008H213.417C212.837 14.2559 210.721 19.3262 207.068 27.5117C205.135 32.1523 203.685 35.2354 202.718 36.7607C202.353 37.9854 201.923 38.7158 201.429 38.9521C201.429 38.8232 201.375 38.7588 201.268 38.7588C201.268 39.4033 200.967 40.0049 200.365 40.5635C200.236 40.7783 200.172 41.0254 200.172 41.3047V41.4658H200.526C200.526 41.7236 200.408 41.8525 200.172 41.8525L199.817 41.6592C199.817 42.0244 199.216 43.292 198.013 45.4619V46.0098H198.528V46.2031C198.356 46.2031 198.12 46.3213 197.819 46.5576L198.013 46.9121V47.2666H197.626V46.9121L196.724 48.2012C196.616 48.3945 196.562 48.6309 196.562 48.9102V49.2646H196.917V49.6514C196.917 49.8232 196.734 49.9951 196.369 50.167H196.176L196.369 49.8125H196.176C195.811 49.8125 195.51 50.3604 195.273 51.4561C195.273 51.6709 195.821 51.9072 196.917 52.165C197.024 52.165 197.078 52.1113 197.078 52.0039L198.367 52.165C198.668 52.165 200.301 52.1113 203.266 52.0039C204.941 52.1113 206.026 52.165 206.521 52.165L206.875 52.0039C207.09 52.1113 207.337 52.165 207.616 52.165H208.325C208.776 52.165 209.324 52.1113 209.969 52.0039C210.098 52.0039 210.162 52.0576 210.162 52.165L211.967 52.0039H214.319C214.448 52.0039 214.513 52.0576 214.513 52.165C214.728 52.0576 214.899 52.0039 215.028 52.0039C217.757 52.0039 220.303 51.8857 222.666 51.6494C222.773 51.6494 222.827 51.7031 222.827 51.8105L230.465 51.2627L230.819 51.4561C231.034 51.3271 231.271 51.2627 231.528 51.2627C231.657 51.2627 231.722 51.3271 231.722 51.4561C231.958 51.3271 232.141 51.2627 232.27 51.2627C232.678 51.2627 233.709 51.209 235.363 51.1016V51.2627C237.125 51.0264 241.175 50.6611 247.513 50.167V50.5537C247.255 50.5537 247.126 50.7363 247.126 51.1016H246.578L245.676 51.2627V51.1016C242.045 51.5742 239.327 51.8105 237.522 51.8105H237.168C236.889 51.8105 236.642 51.875 236.427 52.0039C236.319 52.0039 236.266 51.9395 236.266 51.8105C234.482 52.0469 231.399 52.2295 227.017 52.3584V52.7129H227.178C230.594 52.7129 233.924 52.5947 237.168 52.3584V52.7129C236.674 52.7129 235.943 52.8418 234.977 53.0996C234.354 52.9707 233.999 52.9062 233.913 52.9062L232.076 53.0996C232.076 53.3359 232.259 53.4541 232.624 53.4541C232.753 53.4541 232.936 53.3896 233.172 53.2607C233.301 53.2607 233.483 53.3252 233.72 53.4541C235.976 53.3252 238.758 53.0781 242.066 52.7129V52.5518L241.164 52.7129C240.885 52.7129 240.638 52.6592 240.423 52.5518L239.327 52.7129H237.522V52.3584H238.973L240.777 52.165V52.3584L241.164 52.165C241.271 52.165 241.325 52.2295 241.325 52.3584L242.228 52.165H243.517C243.624 52.165 243.678 52.2295 243.678 52.3584C244.236 52.1221 245.031 52.0039 246.062 52.0039H246.965C247.201 52.0039 247.319 52.1865 247.319 52.5518L249.479 52.3584V52.5518C250.703 52.1865 252.035 52.0039 253.475 52.0039L253.668 52.3584C253.668 52.5947 253.55 52.7129 253.313 52.7129H252.927C252.669 52.7129 252.433 52.6592 252.218 52.5518C251.036 52.917 250.252 53.0996 249.865 53.0996H247.319V53.2607C247.362 53.4971 247.48 53.6152 247.674 53.6152C249.887 53.5078 251.584 53.3359 252.766 53.0996C252.98 53.207 253.217 53.2607 253.475 53.2607C252.895 54.1201 252.229 54.5498 251.477 54.5498C237.469 55.7529 229.197 56.3545 226.662 56.3545V56.1611L226.275 56.3545H224.277L222.473 56.5156V56.709H227.726C228.349 56.709 229.262 56.6445 230.465 56.5156L230.626 56.9023C229.681 57.0957 227.081 57.332 222.827 57.6113V57.4502C222.72 57.4502 222.666 57.5039 222.666 57.6113C220.432 57.7402 218.799 57.8047 217.768 57.8047H215.77L214.674 57.9658C214.566 57.9658 214.513 57.9121 214.513 57.8047L213.224 57.9658H208.519C208.39 57.9658 208.325 57.9121 208.325 57.8047L207.971 57.9658H206.521C206.284 57.9658 206.166 57.8477 206.166 57.6113C206.273 57.6113 206.327 57.5576 206.327 57.4502L207.616 57.6113C208.046 57.6113 208.583 57.5576 209.228 57.4502L209.614 57.6113C210.087 57.5039 210.506 57.4502 210.871 57.4502C210.871 57.1924 210.753 57.0635 210.517 57.0635C210.302 57.1924 210.055 57.2568 209.775 57.2568V56.9023H210.678V56.709C209.41 56.4727 207.96 56.3545 206.327 56.3545V56.1611L205.973 56.3545H203.975C202.406 56.3545 200.773 56.29 199.076 56.1611L196.724 56.5156C194.124 56.2793 192.62 56.1611 192.212 56.1611C191.804 56.3975 191.438 56.5156 191.116 56.5156C190.665 56.1719 190.235 56 189.827 56V55.8066L190.375 54.7109L190.214 54.3564C190.214 54.0342 190.396 53.6152 190.762 53.0996L190.375 52.9062H189.666C189.666 53.3574 189.419 53.7227 188.925 54.002H188.57C188.893 53.0137 189.312 52.165 189.827 51.4561H190.021C190.386 51.4561 190.568 51.7568 190.568 52.3584H190.923C191.159 52.3584 191.277 52.2402 191.277 52.0039L191.116 49.8125C191.653 49.4043 192.856 46.9873 194.726 42.5615C195.327 41.6377 195.628 40.6709 195.628 39.6611C195.392 39.6611 195.273 39.543 195.273 39.3066C195.725 39.1133 196.326 38.0283 197.078 36.0518C200.967 28.4033 205.081 19.5732 209.421 9.56152H209.614C209.722 9.77637 209.775 10.0234 209.775 10.3027H210.162C210.721 8.8418 211.14 8.11133 211.419 8.11133L211.612 8.46582C211.612 8.78809 211.129 10.002 210.162 12.1074L210.871 12.6553C212.01 11.6455 212.912 10.0127 213.578 7.75684H213.965ZM208.325 13.0098V13.5576C208.519 13.5576 208.766 13.3105 209.066 12.8164H208.873C208.637 12.9453 208.454 13.0098 208.325 13.0098ZM206.521 17.0059V18.2627H206.714C206.714 17.9834 206.896 17.6182 207.262 17.167V16.2646C207.67 16.2432 208.024 15.5234 208.325 14.1055V13.9121C207.981 14.1055 207.562 14.9541 207.068 16.458C206.918 16.8232 206.735 17.0059 206.521 17.0059ZM205.618 19.3584V19.9062H205.812C206.155 19.1543 206.327 18.6709 206.327 18.4561C206.177 18.4561 205.94 18.7568 205.618 19.3584ZM192.921 44.3662H193.114V44.5596C193.114 44.7959 192.985 44.9141 192.728 44.9141L192.566 44.5596L192.921 44.3662ZM197.465 47.6533L197.819 47.8145C197.497 48.7812 197.196 49.2646 196.917 49.2646V49.1035C196.917 48.9531 197.1 48.4697 197.465 47.6533ZM255.827 51.4561C256.558 51.585 256.923 51.7031 256.923 51.8105L257.277 51.6494H257.471V52.0039H256.021L255.118 52.165L254.925 51.8105V51.6494C255.333 51.6494 255.634 51.585 255.827 51.4561ZM258.566 52.5518H258.728C258.985 52.5732 259.114 52.6914 259.114 52.9062H258.566V52.5518ZM226.823 53.4541H228.467L228.273 53.0996C228.166 53.0996 228.112 53.1533 228.112 53.2607L227.178 53.0996C226.941 53.1211 226.823 53.2393 226.823 53.4541ZM222.118 53.4541V53.6152H223.214C223.214 53.3789 223.031 53.2607 222.666 53.2607C222.43 53.3896 222.247 53.4541 222.118 53.4541ZM225.566 53.2607V53.4541H226.469V53.2607H225.566ZM212.515 53.6152H209.969V53.8086H211.967V54.002L212.321 53.8086H217.026C217.026 53.5723 216.908 53.4541 216.672 53.4541C215.984 53.4541 215.018 53.5078 213.771 53.6152C213.643 53.6152 213.578 53.5615 213.578 53.4541L212.515 53.6152ZM217.22 53.4541V53.6152C217.821 53.6152 218.541 53.6797 219.379 53.8086C219.615 53.6797 219.798 53.6152 219.927 53.6152V53.4541H217.22ZM220.475 53.4541V53.6152H221.216V53.4541H220.475ZM190.568 54.9043V55.0654C190.611 55.3232 190.729 55.4521 190.923 55.4521V54.9043H190.568ZM246.224 55.4521V55.6133C246.224 56.1074 243.087 56.4082 236.813 56.5156L235.879 56.709V56.5156L235.524 56.709H234.622V56.3545C235.954 56.3545 239.821 56.0537 246.224 55.4521ZM247.513 55.4521H248.415V55.8066H247.513V55.4521ZM210.871 56.5156V56.709H213.224C213.353 56.709 213.417 56.7734 213.417 56.9023C213.567 56.7734 213.986 56.709 214.674 56.709V56.5156H212.321C212.042 56.5156 211.806 56.4619 211.612 56.3545C211.397 56.4619 211.15 56.5156 210.871 56.5156ZM230.819 56.5156H233.72V56.9023H232.979C232.871 56.9023 232.817 56.8379 232.817 56.709C232.517 56.8379 231.915 56.9561 231.013 57.0635L230.819 56.709V56.5156ZM207.777 56.9023H208.325V57.2568H207.777V56.9023ZM193.662 57.2568L194.564 57.4502H200.365V57.8047H193.469V57.6113L193.662 57.2568ZM201.074 57.4502H201.815V57.8047H201.074V57.4502ZM229.272 8.30469H229.691L229.498 10.2383H229.917L231.432 8.30469V8.49805C230.895 11.291 229.734 14.5459 227.951 18.2627V18.4883H228.177C229.831 14.3848 230.776 12.29 231.013 12.2041H231.883V12.4297C231.582 13.3535 231.432 13.998 231.432 14.3633L231.657 14.8145L217.768 48.8779C216.607 52.1865 215.082 54.5713 213.191 56.0322C213.191 56.7197 212.547 57.2354 211.258 57.5791C211.258 57.7725 211.043 57.9873 210.613 58.2236H210.162C210.162 57.4287 210.452 56.5586 211.032 55.6133V54.9688C211.032 54.668 210.893 54.5176 210.613 54.5176C210.162 55.3555 209.937 55.8604 209.937 56.0322H209.518C210.828 50.9404 211.988 47.6855 212.998 46.2676C217.016 35.2461 222.226 22.9463 228.628 9.36816C228.95 9.36816 229.165 9.01367 229.272 8.30469ZM219.508 39.7578C219.207 40.5312 219.057 40.9717 219.057 41.0791C219.25 41.0791 219.54 40.6387 219.927 39.7578H219.508ZM212.354 55.8389V56.0322H212.547C212.547 55.8818 212.912 55.3125 213.643 54.3242H213.191C212.633 54.5391 212.354 55.0439 212.354 55.8389ZM274.454 9.85156C274.927 9.95898 275.41 10.0127 275.904 10.0127H276.065V10.2061C276.065 10.4854 275.528 10.7217 274.454 10.915V11.2695C275.228 11.0332 275.765 10.915 276.065 10.915C275.507 12.4619 275.034 13.2354 274.647 13.2354H274.454V12.8809H273.745C273.036 13.3535 272.091 13.7617 270.909 14.1055V14.46L271.07 14.8467C268.9 15.8994 267.719 16.4258 267.525 16.4258V16.7803C268.922 16.3076 270.168 15.9531 271.264 15.7168V15.9102C270.383 16.748 268.664 17.8115 266.107 19.1006C262.734 21.1631 255.548 26.1475 244.548 34.0537C244.548 34.2256 243.484 34.8809 241.357 36.0195C239.789 37.1797 238.833 38.5439 238.489 40.1123C238.489 40.2842 236.652 44.2051 232.979 51.875C231.646 54.6465 229.928 56.5479 227.822 57.5791C227.822 57.9443 227.339 58.6533 226.372 59.7061H226.018V59.5449C227.457 57.3965 228.177 55.9033 228.177 55.0654H227.983C227.854 55.0654 227.264 55.7852 226.211 57.2246L225.502 56.1611C225.502 55.9248 226.802 52.8955 229.401 47.0732C230.476 45.29 231.013 44.0439 231.013 43.335C225.491 47.5459 220.689 51.1016 216.607 54.002C214.244 55.3125 212.751 55.9678 212.128 55.9678L211.258 55.7744C210.098 56.5049 209.442 56.8701 209.292 56.8701V56.6768C210.194 55.7314 211.623 54.668 213.578 53.4863V53.1318C212.869 53.3252 211.978 53.7979 210.903 54.5498L210.71 54.1953C211.784 52.9062 212.321 52.1865 212.321 52.0361H212.128C211.935 52.0361 211.58 52.1543 211.064 52.3906L210.903 52.0361L233.881 35.5039C234.891 35.5039 236.137 33.6562 237.619 29.9609C241.572 21.7109 244.537 16.4258 246.514 14.1055C248.018 11.8711 248.845 10.7432 248.995 10.7217V11.0762C247.298 13.9551 246.353 15.6846 246.159 16.2646C246.503 16.0498 247.395 14.8037 248.834 12.5264L250.8 11.2695H250.961V11.4629C248.705 14.793 247.577 16.6836 247.577 17.1348L247.932 17.3281C248.426 16.1895 249.618 14.4062 251.509 11.9785V12.333C249.06 16.5654 247.158 20.0674 245.805 22.8389C246.02 22.8389 246.911 21.5391 248.479 18.9395H248.834V19.2939C246.814 22.4951 245.268 25.2236 244.193 27.4795V28.1885C249.199 24.7295 255.666 20.4004 263.594 15.2012C268.836 11.6348 272.456 9.85156 274.454 9.85156ZM273.391 10.2061L273.036 10.7217H273.391C273.627 10.7217 273.745 10.6035 273.745 10.3672L273.391 10.2061ZM269.652 12.333H270.007C271.21 11.7744 271.812 11.4199 271.812 11.2695C271.683 11.2695 271.618 11.2051 271.618 11.0762C271.146 11.2051 270.49 11.624 269.652 12.333ZM269.652 13.5898H270.007C270.308 13.5898 271.199 13.1709 272.682 12.333V12.1719H272.327C270.544 12.9668 269.652 13.4395 269.652 13.5898ZM264.851 15.2012H265.205C267.139 13.8906 268.213 13.2354 268.428 13.2354V13.042H268.234C266.494 13.8584 265.366 14.5781 264.851 15.2012ZM261.306 17.1348V17.4893C261.886 17.1455 262.294 16.9736 262.53 16.9736V16.6191C261.95 16.9629 261.542 17.1348 261.306 17.1348ZM244.387 28.8975H244.548C247.749 26.8994 253.034 23.2793 260.403 18.0371V17.8438C251.444 23.7305 246.105 27.415 244.387 28.8975ZM246.159 19.6484H246.514C246.514 19.4336 246.632 19.1328 246.868 18.7461H246.675C246.417 18.7461 246.245 19.0469 246.159 19.6484ZM244.902 32.8291H245.096C248.361 30.7451 252.454 27.9521 257.374 24.4502C262.659 20.7764 265.452 18.9395 265.753 18.9395V18.7461H265.398C262.842 20.1211 259.458 22.3232 255.247 25.3525C250.585 28.4463 247.137 30.9385 244.902 32.8291ZM245.805 20.0029C245.805 20.1318 245.45 20.8408 244.741 22.1299V22.3232C245.278 21.8506 245.751 21.0771 246.159 20.0029H245.805ZM229.949 39.0488V39.2422H230.143C232.377 37.7383 233.978 36.5459 234.944 35.665V35.5039C234.751 35.5039 233.086 36.6855 229.949 39.0488ZM227.822 40.6602H227.983C228.37 40.2949 228.671 40.1123 228.886 40.1123V39.7578C228.177 40.209 227.822 40.5098 227.822 40.6602ZM220.346 46.0098V46.1709C220.582 46.1709 220.7 46.0527 220.7 45.8164V45.623C220.464 45.666 220.346 45.7949 220.346 46.0098ZM216.253 49.0068H216.414C217.617 48.4912 218.509 47.8467 219.089 47.0732H218.896C217.134 48.2549 216.253 48.8994 216.253 49.0068Z" fill="#E82C4E"/>
</svg>
